<svg width="145" height="16" viewBox="0 0 145 16" fill="none" xmlns="http://www.w3.org/2000/svg">
<path d="M21.2751 0.222531L18.4045 15.8442H14.4458L16.1821 6.47566L10.8112 15.8442H7.61645L5.67183 6.43115L3.9587 15.8442H0L2.87064 0.222531H7.547L10.1398 11.0376L16.6219 0.222531H21.2751Z" fill="#121212"/>
<path d="M31.8773 13.0848H25.8119L24.3303 15.8442H20.1863L28.9372 0.222531H33.5209L35.0257 8.03338L36.5305 15.8442H32.3403L31.8773 13.0848ZM31.4143 10.1919L30.4651 4.40612L27.3629 10.1919H31.4143Z" fill="#AF1328"/>
<path d="M47.8349 0.222531C49.5171 0.222531 50.7981 0.593417 51.6778 1.33519C52.5575 2.06212 52.9974 3.01159 52.9974 4.18359C52.9974 4.5248 52.9665 4.84376 52.9048 5.14047C52.7196 6.17895 52.2489 7.10617 51.4926 7.92211C50.7364 8.73806 49.7255 9.31664 48.4599 9.65786L51.0759 15.8442H46.6079L44.316 9.94715H43.3669L42.2788 15.8442H38.3201L41.1907 0.222531H47.8349ZM48.8535 5.29624C48.8844 5.05888 48.8998 4.90311 48.8998 4.82893C48.8998 4.3542 48.7377 3.99073 48.4136 3.73852C48.105 3.47149 47.642 3.33797 47.0246 3.33797H44.5707L43.853 7.25452H46.307C47.0323 7.25452 47.6034 7.08391 48.0201 6.7427C48.4522 6.40148 48.73 5.91933 48.8535 5.29624Z" fill="#121212"/>
<path d="M54.2092 8.01113C54.487 6.46824 55.0812 5.09597 55.9917 3.8943C56.9178 2.67779 58.0598 1.73574 59.418 1.06815C60.7761 0.38572 62.2423 0.0445057 63.8166 0.0445057C65.7458 0.0445057 67.3045 0.534074 68.4929 1.51321C69.6967 2.49235 70.3758 3.82754 70.5301 5.51878H66.1779C65.9772 4.88085 65.6068 4.3987 65.0667 4.07232C64.5419 3.73111 63.8937 3.5605 63.122 3.5605C61.9028 3.5605 60.8456 3.96847 59.9504 4.78442C59.0553 5.58554 58.4843 6.6611 58.2373 8.01113C58.1602 8.42652 58.1216 8.78999 58.1216 9.10153C58.1216 10.14 58.4225 10.9634 59.0244 11.5716C59.6263 12.1799 60.452 12.484 61.5015 12.484C62.2578 12.484 62.96 12.3134 63.6082 11.9722C64.2718 11.631 64.8274 11.1414 65.275 10.5035H69.6273C68.8556 12.1947 67.6904 13.5299 66.1316 14.509C64.5728 15.4733 62.8288 15.9555 60.8996 15.9555C59.5106 15.9555 58.2991 15.6959 57.265 15.1766C56.231 14.6574 55.4361 13.923 54.8805 12.9736C54.3249 12.0241 54.0471 10.9189 54.0471 9.65786C54.0471 9.09411 54.1011 8.5452 54.2092 8.01113Z" fill="#121212"/>
<path d="M77.515 16C75.7556 16 74.3203 15.6365 73.2091 14.9096C72.1133 14.1678 71.5654 13.1219 71.5654 11.7719C71.5654 11.6384 71.5808 11.4381 71.6117 11.1711H75.7324C75.6861 11.7348 75.8251 12.1799 76.1492 12.5063C76.4733 12.8326 76.9671 12.9958 77.6308 12.9958C78.2327 12.9958 78.7034 12.8697 79.0429 12.6175C79.3979 12.3653 79.5754 12.0093 79.5754 11.5494C79.5754 11.0746 79.3516 10.6889 78.904 10.3922C78.4719 10.0955 77.7928 9.76171 76.8668 9.39082C75.9717 9.03477 75.2386 8.70097 74.6675 8.38943C74.1119 8.06305 73.6258 7.6254 73.2091 7.07649C72.7924 6.52758 72.584 5.83774 72.584 5.00695C72.5686 3.98331 72.8309 3.09318 73.3711 2.33658C73.9113 1.57997 74.6598 1.00139 75.6167 0.600833C76.5736 0.200278 77.6694 0 78.904 0C80.0153 0 81.003 0.170607 81.8673 0.511822C82.7316 0.838201 83.4029 1.32035 83.8814 1.95828C84.3598 2.58136 84.599 3.32313 84.599 4.18359C84.599 4.40612 84.5913 4.56931 84.5759 4.67316H80.3625C80.3779 4.61381 80.3857 4.5248 80.3857 4.40612C80.3857 3.99073 80.2313 3.65693 79.9227 3.40473C79.6294 3.13769 79.2204 3.00417 78.6957 3.00417C78.1401 3.00417 77.6848 3.13769 77.3298 3.40473C76.9903 3.65693 76.8205 4.00556 76.8205 4.45062C76.8205 4.89569 77.0366 5.27399 77.4687 5.58553C77.9009 5.88224 78.5722 6.23088 79.4828 6.63143C80.3934 7.03199 81.1342 7.40287 81.7052 7.74409C82.2917 8.0853 82.7933 8.5452 83.21 9.12378C83.6267 9.68753 83.8351 10.3848 83.8351 11.2156C83.8351 12.1354 83.5804 12.9587 83.0711 13.6857C82.5618 14.4126 81.8287 14.9838 80.8718 15.3992C79.9149 15.7997 78.796 16 77.515 16Z" fill="#121212"/>
<path d="M93.1894 16C91.8158 16 90.6043 15.7255 89.5548 15.1766C88.5208 14.6277 87.7182 13.8563 87.1472 12.8623C86.5761 11.8683 86.2906 10.726 86.2906 9.43533C86.2906 7.61057 86.6996 5.98609 87.5176 4.56189C88.3356 3.12286 89.4699 2.00278 90.9207 1.20167C92.3869 0.400556 94.046 0 95.898 0C97.287 0 98.5063 0.274455 99.5558 0.823366C100.605 1.35744 101.415 2.12146 101.987 3.11544C102.558 4.09457 102.843 5.22207 102.843 6.49791C102.843 8.32267 102.434 9.96198 101.616 11.4159C100.798 12.8549 99.6561 13.9824 98.1899 14.7983C96.7237 15.5994 95.0569 16 93.1894 16ZM93.7913 12.484C94.8099 12.484 95.7051 12.2318 96.4768 11.7274C97.2484 11.223 97.8426 10.548 98.2593 9.70236C98.6915 8.84191 98.9075 7.9147 98.9075 6.92072C98.9075 5.85257 98.5989 5.01437 97.9815 4.40612C97.3642 3.79787 96.4999 3.49374 95.3887 3.49374C94.3701 3.49374 93.4672 3.74594 92.6801 4.25035C91.9084 4.75475 91.3065 5.42976 90.8744 6.27538C90.4577 7.10617 90.2493 8.02596 90.2493 9.03477C90.2493 10.1029 90.558 10.9485 91.1753 11.5716C91.7927 12.1799 92.6647 12.484 93.7913 12.484Z" fill="#121212"/>
<path d="M118.195 15.8442H114.236L109.398 6.20862L107.615 15.8442H103.656L106.527 0.222531H110.486L115.324 9.90264L117.107 0.222531H121.065L118.195 15.8442Z" fill="#121212"/>
<path d="M127.894 0.222531L125.023 15.8442H121.064L123.935 0.222531H127.894Z" fill="#121212"/>
<path d="M128.679 8.01113C128.957 6.46824 129.551 5.09597 130.462 3.8943C131.388 2.67779 132.53 1.73574 133.888 1.06815C135.246 0.38572 136.712 0.0445057 138.286 0.0445057C140.216 0.0445057 141.774 0.534074 142.963 1.51321C144.167 2.49235 144.846 3.82754 145 5.51878H140.648C140.447 4.88085 140.077 4.3987 139.537 4.07232C139.012 3.73111 138.364 3.5605 137.592 3.5605C136.373 3.5605 135.315 3.96847 134.42 4.78442C133.525 5.58554 132.954 6.6611 132.707 8.01113C132.63 8.42652 132.591 8.78999 132.591 9.10153C132.591 10.14 132.892 10.9634 133.494 11.5716C134.096 12.1799 134.922 12.484 135.971 12.484C136.728 12.484 137.43 12.3134 138.078 11.9722C138.742 11.631 139.297 11.1414 139.745 10.5035H144.097C143.325 12.1947 142.16 13.5299 140.601 14.509C139.043 15.4733 137.299 15.9555 135.369 15.9555C133.98 15.9555 132.769 15.6959 131.735 15.1766C130.701 14.6574 129.906 13.923 129.35 12.9736C128.795 12.0241 128.517 10.9189 128.517 9.65786C128.517 9.09411 128.571 8.5452 128.679 8.01113Z" fill="#121212"/>
</svg>
